<!DOCTYPE svg PUBLIC "-//W3C//DTD SVG 20010904//EN" "http://www.w3.org/TR/2001/REC-SVG-20010904/DTD/svg10.dtd">
<svg version="1.0" xmlns="http://www.w3.org/2000/svg" width="293px" height="255px" viewBox="0 0 2930 2550" preserveAspectRatio="xMidYMid meet">
<g id="layer101" fill="#ef7e03" stroke="none">
 <path d="M0 1275 l0 -1275 1465 0 1465 0 0 1275 0 1275 -1465 0 -1465 0 0 -1275z"/>
 </g>
<g id="layer102" fill="#da8f1d" stroke="none">
 <path d="M0 1275 l0 -1275 1465 0 1465 0 0 1275 0 1275 -1465 0 -1465 0 0 -1275z m1967 988 c-4 -3 -10 -3 -14 0 -3 4 0 7 7 7 7 0 10 -3 7 -7z m-87 -67 c0 -3 -5 -8 -12 -12 -7 -4 -8 -3 -4 4 7 12 16 16 16 8z m-1063 -93 c-4 -3 -7 0 -7 7 0 7 3 10 7 7 3 -4 3 -10 0 -14z m510 -280 c-4 -3 -10 -3 -14 0 -3 4 0 7 7 7 7 0 10 -3 7 -7z m308 -13 c3 -6 -1 -7 -9 -4 -18 7 -21 14 -7 14 6 0 13 -4 16 -10z m-730 -30 c3 -6 -1 -7 -9 -4 -18 7 -21 14 -7 14 6 0 13 -4 16 -10z m632 -87 c-4 -3 -10 -3 -14 0 -3 4 0 7 7 7 7 0 10 -3 7 -7z m-980 -70 c-4 -3 -7 0 -7 7 0 7 3 10 7 7 3 -4 3 -10 0 -14z m338 -33 c3 -5 4 -10 1 -10 -3 0 -8 5 -11 10 -3 6 -4 10 -1 10 3 0 8 -4 11 -10z m-368 -17 c-4 -3 -7 0 -7 7 0 7 3 10 7 7 3 -4 3 -10 0 -14z m1700 -30 c-4 -3 -7 0 -7 7 0 7 3 10 7 7 3 -4 3 -10 0 -14z m-1322 -113 c3 -5 4 -10 1 -10 -3 0 -8 5 -11 10 -3 6 -4 10 -1 10 3 0 8 -4 11 -10z m1672 -117 c-4 -3 -7 0 -7 7 0 7 3 10 7 7 3 -4 3 -10 0 -14z m-160 -30 c0 -9 -4 -10 -14 -2 -7 6 -13 12 -13 14 0 1 6 2 13 2 8 0 14 -6 14 -14z m-382 -73 c3 -5 4 -10 1 -10 -3 0 -8 5 -11 10 -3 6 -4 10 -1 10 3 0 8 -4 11 -10z m-638 -197 c-4 -3 -7 0 -7 7 0 7 3 10 7 7 3 -4 3 -10 0 -14z m510 -120 c-4 -3 -10 -3 -14 0 -3 4 0 7 7 7 7 0 10 -3 7 -7z m190 -90 c-4 -3 -7 0 -7 7 0 7 3 10 7 7 3 -4 3 -10 0 -14z m10 -40 c-4 -3 -7 0 -7 7 0 7 3 10 7 7 3 -4 3 -10 0 -14z m-1460 -10 c-4 -3 -7 0 -7 7 0 7 3 10 7 7 3 -4 3 -10 0 -14z m1300 -35 c-3 -8 -6 -5 -6 6 -1 11 2 17 5 13 3 -3 4 -12 1 -19z m230 -95 c-4 -3 -7 0 -7 7 0 7 3 10 7 7 3 -4 3 -10 0 -14z m-492 -73 c-3 -5 -12 -10 -18 -10 -7 0 -6 4 3 10 19 12 23 12 15 0z m400 -150 c3 -5 4 -10 1 -10 -3 0 -8 5 -11 10 -3 6 -4 10 -1 10 3 0 8 -4 11 -10z m-1208 -67 c-4 -3 -7 0 -7 7 0 7 3 10 7 7 3 -4 3 -10 0 -14z"/>
 </g>
<g id="layer103" fill="#f18e05" stroke="none">
 <path d="M0 1275 l0 -1275 1465 0 1465 0 0 1275 0 1275 -1465 0 -1465 0 0 -1275z m950 1004 c12 -8 10 -10 -10 -8 -14 1 -30 1 -37 0 -6 -1 -33 -35 -59 -76 -26 -41 -49 -75 -50 -75 -8 0 19 58 40 85 12 16 27 42 34 58 9 20 19 27 39 27 16 0 35 -5 43 -11z m756 0 c3 -5 -146 -9 -346 -9 -243 0 -349 3 -345 11 8 13 683 11 691 -2z m74 -4 c0 -23 -41 -55 -69 -54 -26 2 -26 2 2 6 26 4 29 7 31 36 2 25 36 37 36 12z m255 5 c4 -6 -6 -10 -24 -10 -16 0 -38 -3 -48 -6 -15 -5 -15 -4 -3 5 25 18 -9 13 -56 -8 -27 -12 -45 -29 -54 -50 -9 -24 -16 -29 -24 -21 -8 8 -6 14 7 21 9 6 17 16 17 24 0 36 166 76 185 45z m60 -20 c3 -5 2 -10 -4 -10 -5 0 -13 5 -16 10 -3 6 -2 10 4 10 5 0 13 -4 16 -10z m78 -77 c9 -19 17 -46 16 -61 -1 -22 -3 -20 -11 13 -6 22 -25 58 -42 80 -28 35 -28 38 -6 21 14 -11 33 -34 43 -53z m-1264 18 c-6 -16 -19 -37 -29 -46 -18 -17 -19 -16 -2 16 34 66 48 80 31 30z m79 22 c-10 -2 -28 -2 -40 0 -13 2 -5 4 17 4 22 1 32 -1 23 -4z m345 0 c-7 -2 -21 -2 -30 0 -10 3 -4 5 12 5 17 0 24 -2 18 -5z m547 -27 c0 -3 -5 -8 -12 -12 -7 -4 -8 -3 -4 4 7 12 16 16 16 8z m-60 -26 c0 -5 -5 -10 -11 -10 -5 0 -7 5 -4 10 3 6 8 10 11 10 2 0 4 -4 4 -10z m-699 -43 c-6 -8 -8 -17 -4 -20 10 -10 -32 -8 -42 2 -6 5 -29 11 -53 14 -35 4 -44 2 -53 -15 -6 -11 -13 -17 -16 -15 -2 3 0 15 7 26 9 19 20 21 92 21 66 0 78 -2 69 -13z m83 0 c-3 -9 18 -23 61 -42 36 -16 65 -33 65 -38 0 -5 -15 0 -32 11 -18 10 -62 25 -97 32 -52 11 -60 15 -42 22 12 4 19 12 16 18 -3 5 3 10 14 10 13 0 18 -5 15 -13z m131 3 c-3 -5 -15 -10 -25 -10 -10 0 -22 5 -25 10 -4 6 7 10 25 10 18 0 29 -4 25 -10z m350 0 c3 -5 4 -10 1 -10 -3 0 -8 5 -11 10 -3 6 -4 10 -1 10 3 0 8 -4 11 -10z m-838 -22 c-3 -8 -6 -5 -6 6 -1 11 2 17 5 13 3 -3 4 -12 1 -19z m-30 -5 c-4 -3 -7 0 -7 7 0 7 3 10 7 7 3 -4 3 -10 0 -14z m-23 -9 c3 -8 2 -12 -4 -9 -6 3 -13 -2 -17 -12 -4 -10 -10 -20 -13 -23 -4 -3 -12 -14 -18 -25 -6 -11 -12 -14 -12 -7 0 12 47 92 54 92 2 0 7 -7 10 -16z m234 -14 c-52 -32 -58 -35 -58 -21 0 9 77 50 95 50 6 0 -11 -13 -37 -29z m669 13 c-4 -3 -7 0 -7 7 0 7 3 10 7 7 3 -4 3 -10 0 -14z m90 0 c-4 -3 -7 0 -7 7 0 7 3 10 7 7 3 -4 3 -10 0 -14z m-954 -23 c-6 -24 -23 -37 -23 -18 0 12 18 38 26 38 1 0 0 -9 -3 -20z m1367 -59 c0 -42 -5 -83 -11 -91 -7 -11 -8 1 -4 41 4 30 3 71 -3 91 -7 27 -7 35 4 35 11 0 14 -18 14 -76z m-1257 54 c-3 -9 -8 -14 -10 -11 -3 3 -2 9 2 15 9 16 15 13 8 -4z m751 -10 c-4 -8 -8 -15 -10 -15 -2 0 -4 7 -4 15 0 8 4 15 10 15 5 0 7 -7 4 -15z m82 -20 c-4 -14 -11 -25 -16 -25 -5 0 -7 7 -5 15 3 8 7 22 10 31 9 26 18 8 11 -21z m-828 -24 c-15 -24 -33 -27 -41 -7 -4 10 -1 13 7 10 7 -3 19 2 26 11 18 22 24 11 8 -14z m-155 4 c-3 -9 -8 -14 -10 -11 -3 3 -2 9 2 15 9 16 15 13 8 -4z m509 -5 c-18 -11 -34 -20 -37 -20 -4 0 -68 -37 -145 -83 -30 -18 -33 -19 -20 -3 8 10 23 22 35 27 11 6 54 30 95 54 41 25 82 45 90 45 8 0 0 -9 -18 -20z m375 3 c-4 -3 -7 0 -7 7 0 7 3 10 7 7 3 -4 3 -10 0 -14z m-6 -71 c-9 -25 -9 -24 -10 18 0 36 2 41 10 27 7 -12 7 -27 0 -45z m-903 17 c-22 -39 -48 -72 -48 -61 0 6 4 14 10 17 5 3 17 22 26 41 9 19 19 33 21 30 2 -2 -2 -15 -9 -27z m116 1 c-10 -16 -20 -28 -22 -26 -4 5 28 56 35 56 2 0 -4 -13 -13 -30z m-177 -5 c-7 -14 -15 -25 -19 -25 -5 0 -8 -9 -8 -20 0 -11 -4 -20 -8 -20 -5 0 -19 -18 -31 -41 -13 -22 -25 -38 -28 -36 -6 6 24 64 37 72 5 3 18 26 29 50 11 25 24 45 29 45 6 0 5 -10 -1 -25z m1053 4 c0 -11 -4 -18 -10 -14 -5 3 -7 12 -3 20 7 21 13 19 13 -6z m-864 -60 l-16 -34 6 35 c3 19 8 44 12 55 6 19 6 19 10 -1 2 -12 -4 -37 -12 -55z m856 -48 c-2 -40 -8 -69 -13 -65 -10 6 -12 52 -3 106 10 60 19 36 16 -41z m-908 34 c-9 -14 -19 -24 -21 -21 -6 6 20 46 30 46 4 0 0 -11 -9 -25z m611 -1 c-11 -9 -32 -18 -47 -21 -15 -3 -33 -12 -39 -19 -6 -8 -17 -14 -23 -14 -16 1 36 39 54 40 8 0 26 9 40 20 14 10 27 16 30 13 3 -2 -4 -11 -15 -19z m161 -66 c7 1 15 -2 19 -8 4 -6 -1 -7 -10 -3 -15 5 -15 3 -3 -16 11 -18 11 -23 -2 -31 -22 -14 -34 -12 -21 4 9 10 0 27 -39 76 -62 78 -64 91 -3 25 25 -27 52 -49 59 -47z m-551 62 c-18 -20 -35 -26 -35 -12 0 4 10 12 23 18 32 16 32 16 12 -6z m605 -61 c0 -37 -4 -58 -10 -54 -18 11 -12 115 7 115 2 0 3 -27 3 -61z m607 7 c-2 -45 -4 -53 -15 -42 -9 8 -11 26 -6 54 9 60 22 52 21 -12z m-1584 -9 c-21 -36 -36 -41 -41 -14 -2 10 3 17 12 17 9 0 22 12 28 26 7 15 14 21 16 15 2 -6 -5 -26 -15 -44z m494 36 c-4 -3 -7 0 -7 7 0 7 3 10 7 7 3 -4 3 -10 0 -14z m-302 -2 c3 -5 1 -12 -5 -16 -5 -3 -10 1 -10 9 0 18 6 21 15 7z m125 5 c0 -3 -5 -8 -12 -12 -7 -4 -8 -3 -4 4 7 12 16 16 16 8z m-221 -56 c-18 -33 -50 -72 -38 -44 21 46 44 84 51 84 4 0 -2 -18 -13 -40z m144 5 c-22 -17 -30 -11 -13 10 7 8 17 12 22 9 5 -3 1 -12 -9 -19z m385 12 c-7 -7 -29 -21 -48 -30 -19 -10 -47 -27 -61 -38 -15 -12 -32 -20 -38 -18 -6 2 24 25 66 51 78 47 106 59 81 35z m990 -12 c-3 -3 -9 2 -12 12 -6 14 -5 15 5 6 7 -7 10 -15 7 -18z m-128 -9 c0 -8 -4 -18 -10 -21 -5 -3 -10 3 -10 14 0 12 5 21 10 21 6 0 10 -6 10 -14z m-1577 -11 c-3 -9 -8 -14 -10 -11 -3 3 -2 9 2 15 9 16 15 13 8 -4z m302 -5 c3 -6 -1 -7 -9 -4 -18 7 -21 14 -7 14 6 0 13 -4 16 -10z m1431 -7 c4 -10 6 -21 6 -25 -1 -5 2 -8 7 -8 11 0 105 -160 98 -167 -3 -2 -16 14 -29 36 -14 23 -28 38 -32 34 -4 -4 -4 -1 -1 8 3 8 -8 33 -25 57 -16 23 -30 46 -30 51 0 6 -8 15 -17 20 -16 9 -16 10 -2 11 9 0 20 -8 25 -17z m-1690 -29 c-4 -9 -9 -15 -11 -12 -3 3 -3 13 1 22 4 9 9 15 11 12 3 -3 3 -13 -1 -22z m1639 6 c3 -5 4 -10 1 -10 -3 0 -8 5 -11 10 -3 6 -4 10 -1 10 3 0 8 -4 11 -10z m-127 -30 c-15 -24 -19 -21 -11 8 3 12 9 19 14 16 5 -3 3 -14 -3 -24z m-1581 -2 c-3 -8 -6 -5 -6 6 -1 11 2 17 5 13 3 -3 4 -12 1 -19z m165 0 c-7 -7 -12 -8 -12 -2 0 14 12 26 19 19 2 -3 -1 -11 -7 -17z m830 15 c-6 -2 -10 -8 -7 -13 3 -4 -3 -7 -13 -6 -9 0 -16 -4 -15 -10 1 -7 -9 -11 -22 -10 -14 0 -25 2 -25 4 0 7 67 42 80 41 10 0 11 -2 2 -6z m-425 -10 c-4 -3 -10 -3 -14 0 -3 4 0 7 7 7 7 0 10 -3 7 -7z m1175 -19 c-3 -15 -8 -22 -14 -16 -9 9 -1 42 12 42 4 0 5 -12 2 -26z m-1765 -1 c-4 -3 -7 0 -7 7 0 7 3 10 7 7 3 -4 3 -10 0 -14z m1203 -19 c0 -21 -4 -33 -10 -29 -17 10 -11 65 7 65 2 0 3 -16 3 -36z m-1140 11 c0 -8 -4 -15 -10 -15 -5 0 -7 7 -4 15 4 8 8 15 10 15 2 0 4 -7 4 -15z m499 2 c-13 -11 -103 -57 -110 -57 -4 0 -28 -13 -52 -30 -49 -33 -62 -36 -73 -18 -4 6 -3 8 3 5 6 -4 26 4 46 17 19 13 44 27 55 30 11 4 44 20 73 36 30 16 55 27 58 24 2 -2 2 -5 0 -7z m560 -66 c1 -40 -23 -71 -53 -71 -16 1 -14 4 11 15 31 13 31 14 27 77 -2 44 -1 56 5 38 5 -14 9 -40 10 -59z m-976 15 c-16 -30 -34 -55 -41 -55 -7 -1 -2 15 14 42 53 84 66 91 27 13z m-172 8 c-12 -19 -21 -42 -21 -50 0 -8 -7 -17 -15 -20 -14 -6 -31 -41 -27 -56 1 -5 -5 -8 -13 -8 -8 0 -15 5 -15 10 0 6 5 10 10 10 6 0 10 5 10 10 0 6 19 40 42 75 44 69 64 89 29 29z m949 28 c0 -4 -15 -14 -32 -22 -18 -7 -37 -16 -43 -18 -5 -3 3 7 19 21 28 26 56 35 56 19z m645 -58 c-9 -14 -19 -23 -22 -20 -3 3 -1 11 4 18 6 7 14 27 18 43 8 28 9 28 13 7 2 -13 -4 -35 -13 -48z m-1537 21 c-3 -3 -9 2 -12 12 -6 14 -5 15 5 6 7 -7 10 -15 7 -18z m1647 4 c4 -11 4 -23 1 -26 -3 -4 -6 -1 -6 6 0 7 -4 10 -8 7 -4 -2 -8 4 -8 15 0 25 13 24 21 -2z m116 -6 c13 -16 12 -17 -3 -4 -17 13 -22 21 -14 21 2 0 10 -8 17 -17z m-1794 -20 c-4 -3 -7 0 -7 7 0 7 3 10 7 7 3 -4 3 -10 0 -14z m810 -10 c-4 -3 -10 -3 -14 0 -3 4 0 7 7 7 7 0 10 -3 7 -7z m-37 -7 c0 -3 -5 -8 -12 -12 -7 -4 -8 -3 -4 4 7 12 16 16 16 8z m872 -23 c-7 -36 -38 -87 -46 -75 -3 5 1 15 9 22 8 7 15 19 15 27 0 14 18 53 24 53 2 0 1 -12 -2 -27z m-1661 -26 c-11 -18 -27 -34 -36 -35 -13 -3 -13 0 4 17 12 12 18 28 15 38 -5 15 -4 16 5 3 9 -13 11 -12 11 3 0 10 5 15 10 12 7 -4 4 -18 -9 -38z m1229 29 c0 -7 3 -29 6 -47 10 -48 -3 -32 -14 19 -6 24 -6 42 -1 42 5 0 9 -6 9 -14z m-470 0 c0 -3 -4 -8 -10 -11 -5 -3 -10 -1 -10 4 0 6 5 11 10 11 6 0 10 -2 10 -4z m810 -4 c0 -5 -7 -17 -16 -28 -8 -10 -14 -14 -11 -9 2 6 7 18 10 28 7 17 17 23 17 9z m-876 -38 c-20 -14 -41 -23 -48 -21 -6 2 7 15 29 29 51 32 68 25 19 -8z m1166 2 c0 -5 -7 -3 -15 4 -8 7 -12 17 -9 22 7 10 24 -9 24 -26z m-1764 -8 c-18 -26 -22 -17 -5 14 6 11 13 17 16 15 3 -3 -2 -16 -11 -29z m1674 -22 c0 -6 -11 1 -25 16 -14 15 -25 30 -25 34 0 4 11 -3 25 -16 14 -13 25 -28 25 -34z m-83 27 c-4 -3 -7 0 -7 7 0 7 3 10 7 7 3 -4 3 -10 0 -14z m248 -4 c10 -30 0 -33 -13 -4 -6 14 -7 25 -2 25 5 0 12 -9 15 -21z m-1560 -30 c3 -25 2 -30 -5 -19 -10 16 -14 67 -4 58 3 -3 7 -21 9 -39z m692 34 c-4 -3 -10 -3 -14 0 -3 4 0 7 7 7 7 0 10 -3 7 -7z m469 -39 c-4 -9 -9 -15 -11 -12 -3 3 -3 13 1 22 4 9 9 15 11 12 3 -3 3 -13 -1 -22z m378 -44 c-7 -6 -54 51 -54 65 0 6 13 -6 30 -25 16 -19 27 -37 24 -40z m-1284 55 c0 -2 -10 -9 -22 -15 -22 -11 -22 -10 -4 4 21 17 26 19 26 11z m377 -12 c-4 -3 -7 0 -7 7 0 7 3 10 7 7 3 -4 3 -10 0 -14z m-879 1 c12 -4 22 -10 22 -13 0 -10 -59 -1 -66 10 -6 10 11 11 44 3z m852 -10 c0 -8 -110 -57 -116 -51 -3 3 19 16 48 31 54 26 68 30 68 20z m267 -26 c-3 -7 -5 -2 -5 12 0 14 2 19 5 13 2 -7 2 -19 0 -25z m543 11 c0 -6 -4 -7 -10 -4 -5 3 -10 11 -10 16 0 6 5 7 10 4 6 -3 10 -11 10 -16z m-1568 -27 c-16 -5 -53 17 -47 28 4 6 17 2 32 -7 14 -9 21 -19 15 -21z m358 34 c0 -3 -29 -20 -65 -39 -73 -39 -77 -31 -7 13 43 27 72 37 72 26z m940 -17 c0 -6 -4 -7 -10 -4 -5 3 -10 11 -10 16 0 6 5 7 10 4 6 -3 10 -11 10 -16z m461 -11 c5 -13 21 -41 34 -63 29 -47 33 -68 6 -34 -24 31 -61 97 -61 109 0 17 10 11 21 -12z m-383 -18 c-11 -33 -28 -49 -28 -28 0 13 27 58 35 58 2 0 -1 -14 -7 -30z m210 -5 c-3 -3 -9 2 -12 12 -6 14 -5 15 5 6 7 -7 10 -15 7 -18z m-1933 -11 c-27 -14 -56 -31 -64 -37 -11 -10 -13 -9 -9 3 6 18 75 58 103 59 11 0 -2 -11 -30 -25z m130 16 c3 -6 -5 -10 -19 -10 -14 0 -28 5 -31 10 -3 6 5 10 19 10 14 0 28 -4 31 -10z m111 -31 c7 -12 -6 -11 -44 2 -18 6 -30 15 -27 19 6 10 62 -7 71 -21z m249 21 c3 -5 4 -10 1 -10 -3 0 -8 5 -11 10 -3 6 -4 10 -1 10 3 0 8 -4 11 -10z m38 -10 c3 -11 1 -18 -4 -14 -5 3 -9 12 -9 20 0 20 7 17 13 -6z m447 10 c0 -6 -19 -20 -42 -31 -46 -22 -88 -45 -128 -71 -14 -9 -36 -19 -48 -23 -13 -4 -33 -16 -43 -26 -10 -10 -25 -19 -31 -19 -7 0 2 14 21 30 18 17 40 30 47 30 14 0 98 43 120 61 7 6 32 21 56 33 24 13 44 24 46 25 1 0 2 -4 2 -9z m413 -10 c3 -11 1 -18 -4 -14 -5 3 -9 12 -9 20 0 20 7 17 13 -6z m214 -25 c-12 -25 -25 -45 -29 -45 -4 0 2 17 13 38 29 51 30 52 34 52 2 0 -6 -20 -18 -45z m470 10 c16 -36 -3 -31 -22 5 -11 21 -12 28 -3 25 7 -3 18 -17 25 -30z m-1637 15 c13 -8 13 -10 -2 -10 -9 0 -20 5 -23 10 -8 13 5 13 25 0z m1529 -34 c-3 -3 -11 5 -18 17 -13 21 -12 21 5 5 10 -10 16 -20 13 -22z m-1489 14 c0 -5 -2 -10 -4 -10 -3 0 -8 5 -11 10 -3 6 -1 10 4 10 6 0 11 -4 11 -10z m-141 -24 c10 -12 8 -13 -9 -9 -25 7 -37 23 -17 23 8 0 20 -6 26 -14z m181 -7 c0 -14 -17 -10 -23 5 -4 10 -1 13 9 9 7 -3 14 -9 14 -14z m802 -19 c-2 -3 -7 1 -9 8 -4 9 -9 10 -17 3 -7 -6 -39 -24 -72 -40 -56 -28 -57 -29 -31 -5 15 13 34 24 41 24 8 0 20 7 27 16 22 26 53 34 60 15 4 -9 4 -18 1 -21z m99 -21 c6 -15 12 -37 14 -50 1 -13 6 -33 10 -44 6 -15 5 -17 -4 -9 -16 15 -52 144 -43 158 4 7 8 3 10 -9 2 -11 8 -32 13 -46z m-1017 20 c14 -7 27 -17 30 -24 7 -19 -35 -6 -57 16 -20 22 -10 24 27 8z m1590 -5 c3 -8 2 -12 -4 -9 -6 3 -10 10 -10 16 0 14 7 11 14 -7z m136 -37 c0 -5 4 -6 8 -3 4 2 8 -4 8 -14 0 -24 -18 -15 -34 18 -24 48 -24 58 -3 32 11 -14 21 -29 21 -33z m-1496 -17 c35 -24 45 -40 27 -40 -5 0 -18 11 -29 25 -11 13 -31 29 -46 35 -14 5 -26 16 -26 25 0 13 3 12 19 -2 10 -10 35 -29 55 -43z m-724 43 c-1 -5 -7 -19 -15 -33 -10 -18 -14 -20 -15 -8 0 23 11 48 21 48 5 0 9 -3 9 -7z m50 -3 c0 -5 -4 -10 -10 -10 -5 0 -10 5 -10 10 0 6 5 10 10 10 6 0 10 -4 10 -10z m1615 0 c3 -5 -1 -10 -10 -10 -9 0 -13 5 -10 10 3 6 8 10 10 10 2 0 7 -4 10 -10z m592 -17 c-4 -3 -7 0 -7 7 0 7 3 10 7 7 3 -4 3 -10 0 -14z m32 -45 c-5 -9 -14 -20 -20 -24 -8 -5 -8 -1 0 14 14 26 14 45 1 37 -6 -3 -7 1 -4 10 6 14 8 14 19 -2 9 -12 10 -24 4 -35z m-1731 17 c-3 -3 -9 2 -12 12 -6 14 -5 15 5 6 7 -7 10 -15 7 -18z m1171 -20 c-11 -25 -17 -51 -13 -58 5 -9 4 -9 -6 0 -13 12 -15 11 -66 -84 -9 -18 -23 -34 -30 -37 -17 -7 48 111 111 202 25 34 26 26 4 -23z m391 20 c0 -24 -17 -25 -36 -3 -11 12 -14 18 -7 15 6 -4 14 -3 18 3 8 13 25 3 25 -15z m-685 6 c3 -5 1 -12 -5 -16 -5 -3 -10 1 -10 9 0 18 6 21 15 7z m205 5 c0 -2 -8 -10 -17 -17 -16 -13 -17 -12 -4 4 13 16 21 21 21 13z m-405 -18 c-11 -6 -24 -17 -28 -25 -4 -7 -19 -13 -33 -13 -17 0 -23 -4 -18 -12 4 -7 3 -8 -5 -4 -6 4 -18 2 -26 -4 -10 -9 -15 -9 -15 -1 0 11 60 47 73 43 4 -1 18 4 30 13 12 8 26 15 32 15 5 0 1 -6 -10 -12z m-1238 -110 c9 -10 20 -15 24 -12 5 3 6 -2 3 -11 -4 -10 1 -21 12 -30 11 -7 16 -17 11 -21 -4 -4 -7 -2 -7 4 0 7 -7 12 -15 12 -8 0 -15 6 -15 13 0 7 -9 20 -19 29 -23 19 -37 80 -25 105 6 13 9 6 12 -27 2 -25 10 -53 19 -62z m663 67 c8 -7 36 -34 62 -59 26 -25 52 -46 58 -46 5 0 10 -7 10 -15 0 -8 6 -15 14 -15 16 0 29 -27 20 -41 -3 -5 -18 7 -34 28 -29 40 -104 113 -115 113 -3 0 -16 10 -29 23 -13 12 -32 28 -42 34 -16 10 -14 11 11 2 16 -6 36 -16 45 -24z m795 -12 c7 -29 -13 -53 -44 -53 -12 0 -10 5 7 18 19 15 22 24 16 47 -4 18 -3 26 3 22 6 -4 14 -19 18 -34z m751 12 c-9 -14 -14 -31 -10 -37 4 -7 3 -8 -4 -4 -17 10 -15 32 4 50 23 24 28 19 10 -9z m-613 -28 c-11 -12 -23 -30 -26 -40 -8 -22 -27 -13 -27 13 0 13 5 17 15 14 9 -4 21 5 32 25 10 17 20 26 22 20 2 -6 -6 -20 -16 -32z m502 33 c3 -5 1 -10 -4 -10 -6 0 -11 5 -11 10 0 6 2 10 4 10 3 0 8 -4 11 -10z m165 -14 c0 -3 -5 -8 -12 -12 -7 -4 -8 -3 -4 4 7 12 16 16 16 8z m-1191 -39 c-19 -12 -51 -31 -72 -40 -23 -12 -35 -23 -31 -30 4 -7 4 -9 -1 -5 -13 12 -34 -12 -28 -30 5 -14 2 -13 -14 3 -19 19 -19 20 39 57 32 21 65 38 72 38 8 0 19 7 26 15 7 8 19 15 28 15 8 0 0 -10 -19 -23z m1001 10 c0 -7 -13 -28 -30 -47 -19 -22 -27 -28 -23 -15 4 11 15 29 25 39 10 11 18 23 18 28 0 4 2 8 5 8 3 0 5 -6 5 -13z m170 -11 c0 -16 -30 -50 -37 -42 -4 4 27 55 35 56 1 0 2 -6 2 -14z m-83 -36 c-26 -47 -45 -54 -21 -7 14 26 31 46 41 47 1 0 -8 -18 -20 -40z m-785 6 c7 4 8 2 4 -4 -4 -7 -12 -12 -18 -12 -7 0 -22 -9 -34 -21 -14 -13 -24 -17 -29 -10 -3 6 5 15 20 21 14 5 28 17 32 27 4 11 8 13 11 5 2 -7 9 -9 14 -6z m-103 -62 c-15 -18 -69 -47 -76 -41 -2 3 15 16 39 30 53 31 54 31 37 11z m734 -9 c-6 -17 -23 -20 -23 -5 0 6 5 10 11 10 5 0 7 5 3 12 -4 7 -3 8 4 4 6 -4 9 -13 5 -21z m104 -19 c-12 -18 -23 -32 -25 -31 -6 6 29 65 38 65 5 0 -1 -15 -13 -34z m-2013 9 c3 -9 0 -15 -9 -15 -8 0 -15 7 -15 15 0 8 4 15 9 15 5 0 11 -7 15 -15z m783 -37 c26 -24 30 -40 9 -32 -16 6 -51 54 -39 54 4 0 17 -10 30 -22z m123 -13 c19 -19 40 -35 46 -35 22 0 64 23 58 31 -3 5 2 6 11 3 8 -4 23 0 33 7 15 13 16 12 3 -3 -7 -10 -17 -18 -22 -18 -4 0 -25 -11 -45 -25 -41 -28 -54 -31 -54 -13 0 7 -19 29 -42 50 -24 20 -38 37 -32 38 5 0 25 -16 44 -35z m971 12 c-10 -9 -11 -8 -5 6 3 10 9 15 12 12 3 -3 0 -11 -7 -18z m184 -10 c-4 -8 -13 -18 -21 -21 -12 -5 -12 -2 -2 17 7 12 11 27 9 32 -1 6 2 5 9 -1 6 -6 8 -18 5 -27z m-532 0 c4 3 7 2 7 -4 0 -6 11 -14 25 -17 14 -4 31 -18 37 -31 6 -13 15 -22 21 -18 6 3 7 1 3 -5 -3 -6 -2 -13 3 -16 5 -3 14 -21 20 -38 l11 -33 -20 25 c-11 14 -32 42 -47 63 -15 20 -47 46 -71 57 -23 12 -40 25 -36 31 4 7 12 5 23 -5 10 -9 21 -13 24 -9z m-1383 -38 c8 -5 25 -13 38 -19 12 -5 22 -14 22 -20 0 -12 -34 3 -62 27 -9 8 -21 13 -25 10 -5 -3 -22 5 -39 19 l-29 24 40 -16 c22 -9 47 -20 55 -25z m837 24 c-4 -3 -7 0 -7 7 0 7 3 10 7 7 3 -4 3 -10 0 -14z m876 -16 c-3 -13 -16 -37 -29 -53 l-24 -29 16 40 c14 35 32 65 39 65 1 0 0 -11 -2 -23z m107 -16 c-5 -11 -15 -23 -21 -27 -6 -3 -3 5 6 20 20 30 30 35 15 7z m60 5 c0 -3 -5 -8 -12 -12 -7 -4 -8 -3 -4 4 7 12 16 16 16 8z m-1193 -13 c-4 -3 -10 -3 -14 0 -3 4 0 7 7 7 7 0 10 -3 7 -7z m20 -20 c-4 -3 -10 -3 -14 0 -3 4 0 7 7 7 7 0 10 -3 7 -7z m-588 -12 c7 -5 9 -11 4 -14 -6 -4 -19 0 -29 8 -15 11 -16 14 -4 15 8 0 21 -4 29 -9z m1731 -20 c-6 -12 -15 -21 -21 -21 -5 0 -2 11 7 25 20 30 31 26 14 -4z m-1096 -14 c28 -37 32 -47 16 -47 -5 0 -10 5 -10 10 0 14 -43 56 -53 52 -5 -1 -6 2 -2 8 11 17 23 11 49 -23z m1046 29 c0 -3 -4 -8 -10 -11 -5 -3 -10 -1 -10 4 0 6 5 11 10 11 6 0 10 -2 10 -4z m-1577 -22 c62 -10 81 -24 24 -18 -52 6 -97 19 -97 30 0 3 7 3 16 0 9 -3 34 -9 57 -12z m1140 -19 c4 -8 15 -15 22 -15 8 0 15 -7 15 -15 0 -19 -19 -19 -26 0 -3 8 -20 21 -37 30 -28 14 -32 14 -49 -1 -16 -15 -18 -15 -18 -1 0 8 6 18 13 21 20 9 71 -3 80 -19z m287 -15 c-6 -12 -14 -20 -17 -17 -2 3 1 14 8 26 17 26 24 19 9 -9z m127 23 c-4 -3 -10 -3 -14 0 -3 4 0 7 7 7 7 0 10 -3 7 -7z m-1766 -20 c10 -11 10 -14 2 -9 -8 4 -13 2 -13 -5 0 -8 -4 -8 -15 1 -8 7 -15 16 -15 21 0 15 27 10 41 -8z m342 0 c-7 -2 -21 -2 -30 0 -10 3 -4 5 12 5 17 0 24 -2 18 -5z m142 -15 c7 -7 -5 -8 -35 -3 -25 4 -53 8 -62 9 -10 1 -21 6 -25 10 -5 4 19 5 52 1 33 -4 65 -12 70 -17z m1246 -20 c-11 -18 -21 -26 -21 -18 0 19 30 63 37 56 3 -3 -4 -20 -16 -38z m-1134 15 c-4 -3 -10 -3 -14 0 -3 4 0 7 7 7 7 0 10 -3 7 -7z m86 0 c-13 -2 -33 -2 -45 0 -13 2 -3 4 22 4 25 0 35 -2 23 -4z m564 -38 c-2 -55 -17 -60 -17 -7 0 33 6 52 16 52 2 0 2 -20 1 -45z m263 -22 c0 -68 -5 -66 -14 5 -4 33 -3 52 4 52 6 0 10 -24 10 -57z m262 3 c-12 -24 -26 -47 -32 -51 -5 -3 -19 -25 -31 -48 -30 -62 -45 -87 -59 -100 -14 -13 -14 -12 20 56 13 26 27 47 32 47 4 0 8 5 8 10 0 15 73 140 78 135 3 -2 -5 -24 -16 -49z m-1702 34 c0 -5 -5 -10 -11 -10 -5 0 -7 5 -4 10 3 6 8 10 11 10 2 0 4 -4 4 -10z m-50 -10 c0 -5 -4 -10 -9 -10 -6 0 -13 5 -16 10 -3 6 1 10 9 10 9 0 16 -4 16 -10z m1406 -45 c11 -34 9 -75 -5 -75 -3 0 -7 23 -9 52 -1 28 -7 58 -14 67 -10 13 -10 14 2 4 7 -7 19 -28 26 -48z m171 38 c-4 -3 -7 0 -7 7 0 7 3 10 7 7 3 -4 3 -10 0 -14z m-1364 -11 c-13 -2 -23 -8 -23 -15 0 -8 -3 -8 -11 0 -18 18 -2 31 28 24 25 -5 26 -6 6 -9z m-119 -47 c17 -30 27 -58 23 -61 -4 -4 -7 -3 -7 3 0 19 -42 65 -50 54 -3 -7 -6 4 -6 24 1 19 3 35 6 35 3 0 18 -25 34 -55z m233 41 c28 -1 43 -16 16 -16 -37 0 -83 12 -83 22 0 5 10 6 23 2 12 -4 32 -8 44 -8z m1180 -3 c-4 -3 -7 0 -7 7 0 7 3 10 7 7 3 -4 3 -10 0 -14z m-1483 -33 c8 -17 11 -28 6 -25 -5 3 -15 19 -24 35 -8 17 -11 28 -6 25 5 -3 15 -19 24 -35z m1261 30 c3 -6 -1 -7 -9 -4 -18 7 -21 14 -7 14 6 0 13 -4 16 -10z m378 -36 c-29 -51 -44 -54 -17 -2 14 27 31 47 41 48 1 0 -10 -20 -24 -46z m-1016 25 c95 1 154 -2 158 -9 4 -7 -33 -10 -113 -10 -150 0 -272 10 -272 23 0 5 15 6 38 2 20 -4 105 -6 189 -6z m902 -27 c-6 -17 -17 -33 -25 -36 -11 -4 -9 5 7 34 26 46 34 47 18 2z m-709 24 c0 -3 -4 -8 -10 -11 -5 -3 -10 -1 -10 4 0 6 5 11 10 11 6 0 10 -2 10 -4z m677 -23 c-4 -3 -7 0 -7 7 0 7 3 10 7 7 3 -4 3 -10 0 -14z m-467 -8 c17 -9 30 -22 30 -31 0 -13 -5 -12 -26 5 -15 12 -35 21 -46 21 -11 0 -16 5 -13 10 9 14 21 13 55 -5z m-836 -11 c3 -8 2 -12 -4 -9 -6 3 -10 10 -10 16 0 14 7 11 14 -7z m1113 -6 c-3 -8 -6 -5 -6 6 -1 11 2 17 5 13 3 -3 4 -12 1 -19z m-360 -6 c-10 -10 -17 -33 -17 -51 0 -19 -4 -30 -10 -26 -25 16 -3 95 27 95 15 0 15 -2 0 -18z m-134 -44 c7 -69 34 -126 77 -166 19 -17 30 -32 23 -32 -40 -1 -112 122 -118 200 -5 67 11 64 18 -2z m524 30 c-3 -8 -6 -5 -6 6 -1 11 2 17 5 13 3 -3 4 -12 1 -19z m126 2 c-3 -11 -7 -20 -9 -20 -2 0 -4 9 -4 20 0 11 4 20 9 20 5 0 7 -9 4 -20z m-1403 -40 c3 -3 11 -18 18 -34 12 -26 11 -28 -2 -16 -9 7 -16 18 -16 25 0 6 -9 20 -20 30 -11 10 -20 25 -20 34 0 10 5 8 17 -9 9 -14 19 -27 23 -30z m166 13 c-7 -7 -26 7 -26 19 0 6 6 6 15 -2 9 -7 13 -15 11 -17z m1259 7 c3 -5 4 -10 1 -10 -3 0 -8 5 -11 10 -3 6 -4 10 -1 10 3 0 8 -4 11 -10z m113 -10 c-7 -10 -14 -17 -17 -15 -4 4 18 35 25 35 2 0 -1 -9 -8 -20z m-485 -40 c16 -54 13 -85 -11 -112 -19 -22 -51 -26 -33 -4 10 12 8 13 -8 9 -12 -3 -18 -9 -15 -14 3 -5 -1 -9 -9 -9 -12 0 -13 4 -4 24 7 14 14 21 17 16 3 -5 14 -7 25 -5 11 2 23 4 28 4 10 1 9 81 -1 81 -5 0 -9 6 -9 13 0 6 -4 20 -8 30 -4 10 -3 17 3 17 6 0 17 -23 25 -50z m257 35 c0 -8 -7 -15 -16 -15 -14 0 -14 3 -4 15 7 8 14 15 16 15 2 0 4 -7 4 -15z m-1225 -49 c14 -27 25 -56 21 -56 -4 0 -66 97 -66 105 0 10 33 -25 45 -49z m1180 25 c-6 -5 -25 10 -25 20 0 5 6 4 14 -3 8 -7 12 -15 11 -17z m111 -9 c-15 -15 -15 -15 -4 10 7 15 15 23 17 17 2 -6 -4 -18 -13 -27z m-1177 -12 c11 -22 16 -40 11 -40 -6 0 -10 6 -10 13 0 8 -9 22 -20 32 -21 19 -26 35 -11 35 5 0 18 -18 30 -40z m1205 10 c-10 -16 -20 -28 -22 -26 -4 5 28 56 35 56 2 0 -4 -13 -13 -30z m105 -17 c-6 -16 -18 -37 -28 -48 -9 -11 -26 -37 -37 -58 -20 -40 -34 -56 -34 -38 0 5 19 38 43 73 24 35 46 71 50 81 3 9 9 17 11 17 3 0 1 -12 -5 -27z m-542 5 c7 -1 10 -5 7 -9 -2 -4 -18 -3 -35 3 -24 8 -33 7 -48 -6 -16 -15 -31 -13 -31 5 0 11 40 18 70 13 14 -3 30 -5 37 -6z m-921 -55 c-11 -11 -19 6 -11 24 8 17 8 17 12 0 3 -10 2 -21 -1 -24z m944 6 c0 -6 -4 -7 -10 -4 -5 3 -10 11 -10 16 0 6 5 7 10 4 6 -3 10 -11 10 -16z m380 11 c0 -5 -7 -7 -15 -4 -8 4 -15 8 -15 10 0 2 7 4 15 4 8 0 15 -4 15 -10z m-1130 -4 c0 -3 -5 -8 -12 -12 -7 -4 -8 -3 -4 4 7 12 16 16 16 8z m1079 -32 c-23 -28 -138 -106 -151 -102 -6 2 6 15 28 28 21 13 59 39 83 57 48 36 60 41 40 17z m-1173 -34 c15 -22 24 -43 20 -47 -3 -3 -7 -4 -8 -2 -21 33 -47 89 -43 89 2 0 17 -18 31 -40z m103 17 c12 -15 12 -17 -3 -11 -9 3 -16 13 -16 22 0 8 1 13 3 11 1 -2 9 -12 16 -22z m1281 19 c0 -3 -5 -8 -12 -12 -7 -4 -8 -3 -4 4 7 12 16 16 16 8z m-1430 -58 c0 -20 82 -148 90 -143 6 3 7 -1 4 -9 -9 -24 -19 -13 -74 80 -51 88 -62 116 -35 94 8 -7 15 -17 15 -22z m1391 -1 c-10 -9 -11 -8 -5 6 3 10 9 15 12 12 3 -3 0 -11 -7 -18z m-1216 3 c3 -5 1 -10 -4 -10 -6 0 -11 5 -11 10 0 6 2 10 4 10 3 0 8 -4 11 -10z m1033 -20 c-7 -10 -14 -18 -15 -16 -6 6 9 36 18 36 5 0 4 -9 -3 -20z m-1015 -14 c4 -10 1 -13 -8 -9 -8 3 -12 9 -9 14 7 12 11 11 17 -5z m1187 6 c0 -5 -7 -17 -15 -28 -14 -18 -14 -18 -15 4 0 13 4 20 10 17 6 -3 10 -1 10 4 0 6 2 11 5 11 3 0 5 -4 5 -8z m-492 -30 c6 -1 12 -6 12 -12 0 -15 -56 -12 -68 3 -10 12 6 15 56 9z m215 0 c23 -1 36 -6 32 -12 -9 -14 -78 -13 -93 2 -9 9 -15 9 -24 0 -14 -14 -48 -16 -48 -4 0 16 10 19 53 17 23 -1 59 -2 80 -3z m87 -1 c0 -14 -18 -23 -31 -15 -8 4 -7 9 2 15 18 11 29 11 29 0z m110 -12 c-7 -11 -14 -18 -17 -15 -8 8 5 36 17 36 7 0 7 -6 0 -21z m-1195 -15 c9 -15 12 -23 6 -20 -11 7 -35 46 -28 46 3 0 12 -12 22 -26z m700 16 c-8 -13 -605 -14 -605 -1 0 6 121 10 306 11 206 0 303 -3 299 -10z m545 -19 c0 -5 -8 -17 -17 -28 -10 -10 -17 -17 -16 -14 2 2 -2 10 -9 18 -8 11 -7 12 6 7 10 -4 18 0 22 10 7 17 14 21 14 7z m-80 -28 c0 -5 -9 -19 -20 -33 -16 -20 -19 -21 -14 -5 11 31 34 58 34 38z m-1135 -23 c3 -5 4 -10 1 -10 -3 0 -8 5 -11 10 -3 6 -4 10 -1 10 3 0 8 -4 11 -10z m1170 -10 c3 -5 4 -10 1 -10 -3 0 -8 5 -11 10 -3 6 -4 10 -1 10 3 0 8 -4 11 -10z m-1186 -65 c1 -17 -1 -17 -12 5 -8 14 -11 31 -9 39 4 11 7 10 13 -5 4 -10 8 -28 8 -39z m101 45 c0 -5 -15 -9 -34 -7 -19 1 -32 5 -29 10 6 11 63 9 63 -3z m513 3 c3 -5 -81 -7 -186 -5 -312 4 -339 8 -70 10 138 1 254 -1 256 -5z m151 -3 c-5 -5 -29 -6 -59 -1 l-50 9 60 1 c37 1 56 -2 49 -9z m336 2 c0 -4 -35 -6 -77 -4 -120 5 -128 9 -20 11 53 0 97 -2 97 -7z m-257 -9 c-7 -2 -19 -2 -25 0 -7 3 -2 5 12 5 14 0 19 -2 13 -5z m327 -23 c-6 -11 -18 -20 -27 -20 -14 0 -14 2 2 20 10 11 22 20 27 20 5 0 4 -9 -2 -20z m-1053 -27 c-4 -3 -7 0 -7 7 0 7 3 10 7 7 3 -4 3 -10 0 -14z"/>
 <path d="M2415 1280 c3 -5 8 -10 11 -10 3 0 2 5 -1 10 -3 6 -8 10 -11 10 -3 0 -2 -4 1 -10z"/>
 </g>
<g id="layer104" fill="#e5952e" stroke="none">
 <path d="M0 1275 l0 -1275 1465 0 1465 0 0 1275 0 1275 -1465 0 -1465 0 0 -1275z m965 1005 c26 -6 44 -5 52 1 8 7 139 10 388 8 392 -4 403 -5 357 -45 -16 -14 -71 -16 -431 -16 l-413 -1 -9 -26 c-6 -14 -21 -37 -33 -51 -13 -14 -29 -41 -36 -60 -7 -19 -19 -40 -25 -45 -7 -6 -23 -33 -36 -60 -12 -28 -33 -64 -46 -81 -13 -17 -23 -37 -23 -45 0 -23 -39 -81 -50 -74 -6 3 -10 -5 -10 -18 0 -14 -7 -30 -15 -37 -8 -7 -15 -20 -15 -30 0 -10 -7 -20 -15 -24 -8 -3 -15 -13 -15 -21 0 -9 -4 -14 -9 -11 -10 6 -22 -17 -26 -50 -6 -46 -33 -71 -75 -71 -22 0 -40 4 -40 9 0 6 6 8 13 5 9 -3 13 3 13 17 -1 12 4 20 12 18 8 -1 11 2 7 8 -4 6 10 35 29 64 20 30 36 59 36 65 0 6 4 11 8 11 5 0 24 34 42 75 18 41 41 82 52 91 10 10 18 23 18 31 0 8 4 11 10 8 5 -3 7 0 4 9 -3 8 4 24 16 36 12 12 26 34 30 49 4 14 12 25 18 24 6 -2 9 3 6 10 -2 7 7 28 21 47 14 19 25 39 25 45 0 7 12 30 28 51 15 21 33 51 39 67 14 30 31 33 98 17z m1069 3 c3 -4 16 -8 27 -10 65 -10 137 -104 126 -163 -5 -21 -3 -29 4 -24 11 6 7 -119 -5 -196 -3 -19 -6 -51 -7 -70 -1 -19 -6 -41 -12 -47 -5 -7 -7 -19 -4 -26 3 -7 -1 -21 -9 -32 -8 -10 -14 -31 -14 -46 0 -14 -9 -38 -20 -51 -10 -14 -17 -28 -13 -31 3 -4 -2 -18 -11 -31 -9 -14 -16 -32 -16 -41 0 -9 -6 -18 -14 -21 -9 -3 -12 -12 -9 -21 4 -11 2 -14 -5 -9 -8 5 -12 0 -12 -14 0 -13 -4 -19 -12 -14 -6 4 -8 3 -5 -3 7 -11 -20 -74 -36 -84 -5 -4 -6 -12 -3 -18 4 -6 0 -11 -8 -11 -9 0 -16 -6 -16 -14 0 -7 -7 -19 -15 -26 -8 -7 -15 -23 -15 -35 0 -12 -7 -29 -16 -36 -9 -7 -20 -24 -25 -37 -11 -29 -29 -19 -29 17 0 15 -5 32 -10 37 -14 14 -51 145 -44 156 3 5 0 15 -6 23 -6 8 -9 23 -5 35 3 11 2 20 -2 20 -12 0 -37 117 -35 157 2 17 -2 34 -8 38 -6 4 -8 30 -5 65 2 34 0 62 -5 65 -6 3 -10 21 -10 38 0 52 12 107 21 101 5 -3 9 -1 9 5 0 5 -5 13 -10 16 -6 4 -7 13 -1 23 5 9 9 30 9 45 0 16 4 38 10 50 19 42 37 92 34 100 -1 4 4 10 12 13 8 3 13 11 10 19 -3 7 2 15 10 18 9 4 16 13 16 22 0 23 69 53 126 54 28 1 54 -2 58 -6z m-345 -160 c10 -19 7 -64 -4 -84 -16 -25 -22 -292 -9 -387 6 -43 4 -56 -11 -72 -10 -11 -26 -20 -37 -20 -10 0 -18 -4 -18 -10 0 -5 -7 -10 -15 -10 -8 0 -24 -9 -34 -19 -11 -11 -22 -17 -24 -14 -3 2 -14 -4 -26 -16 -11 -11 -43 -28 -70 -38 -28 -10 -51 -21 -51 -26 0 -4 -19 -17 -42 -28 -46 -22 -88 -45 -128 -71 -14 -9 -36 -19 -48 -23 -13 -4 -33 -16 -44 -27 -11 -11 -26 -17 -33 -14 -8 3 -16 0 -19 -7 -3 -8 -14 -2 -30 16 -14 15 -37 32 -51 37 -14 5 -25 16 -25 24 0 13 -27 31 -42 28 -4 -1 -19 9 -34 23 -15 14 -35 25 -46 25 -10 0 -21 7 -24 15 -6 16 -41 30 -62 26 -8 -1 -26 6 -40 16 -15 9 -38 19 -52 20 -14 2 -31 6 -37 8 -20 7 -15 43 7 65 12 12 19 24 16 28 -2 4 13 33 33 63 21 31 41 64 44 73 4 10 12 14 19 10 8 -5 9 -2 5 9 -6 16 28 88 45 95 4 2 15 19 24 38 9 19 20 34 25 34 5 0 9 7 9 17 0 9 11 31 25 48 13 18 21 36 17 40 -4 5 -1 5 6 1 6 -4 12 -2 12 4 0 6 11 36 25 66 l25 54 355 0 c327 0 355 -1 364 -17z m591 -262 c0 -10 7 -24 15 -31 8 -7 15 -16 15 -21 0 -5 8 -18 18 -29 9 -11 16 -23 15 -25 -2 -3 6 -14 18 -26 11 -11 18 -27 15 -35 -3 -8 -2 -13 3 -10 11 7 74 -102 66 -114 -4 -6 1 -10 9 -10 9 0 19 -16 26 -40 6 -22 15 -40 21 -40 5 0 14 -10 20 -22 5 -13 21 -41 34 -63 14 -22 25 -50 25 -63 0 -13 4 -21 8 -18 4 2 13 -4 19 -14 10 -15 7 -25 -17 -56 -16 -22 -30 -47 -30 -57 0 -9 -11 -27 -25 -39 -13 -11 -22 -25 -19 -30 3 -4 1 -8 -5 -8 -6 0 -13 -11 -17 -25 -3 -14 -10 -25 -15 -25 -5 0 -6 -6 -3 -13 2 -7 -9 -28 -26 -47 -16 -18 -30 -42 -30 -52 0 -10 -9 -27 -20 -38 -11 -11 -20 -24 -20 -30 0 -5 -4 -10 -10 -10 -5 0 -10 -6 -10 -13 0 -18 -37 -94 -50 -102 -6 -3 -19 -25 -31 -48 -23 -48 -33 -65 -74 -127 -16 -25 -37 -60 -46 -78 -8 -18 -19 -29 -24 -25 -4 5 -5 3 -2 -3 8 -14 -24 -81 -53 -112 -11 -12 -19 -26 -16 -31 3 -4 -1 -16 -8 -26 -13 -18 -42 -19 -595 -19 -341 -1 -581 3 -581 8 0 5 -11 23 -24 41 -37 48 -116 185 -116 201 0 8 -9 23 -20 34 -11 11 -20 26 -20 34 0 7 -7 19 -15 26 -8 7 -15 18 -15 25 0 6 -9 20 -20 30 -11 10 -20 26 -20 36 0 10 -5 21 -11 24 -10 7 -26 41 -27 58 0 5 -9 15 -19 23 -10 7 -14 14 -9 14 5 0 -1 11 -14 25 -25 27 -20 47 8 27 9 -7 27 -16 40 -22 12 -5 22 -14 22 -20 0 -6 5 -8 12 -4 8 5 9 2 5 -9 -4 -10 -1 -17 6 -17 12 0 61 -86 72 -127 4 -13 10 -23 15 -23 5 0 19 -21 31 -48 12 -26 28 -55 36 -64 8 -9 12 -22 7 -29 -4 -7 -3 -10 4 -5 12 7 64 -92 56 -106 -3 -5 -1 -7 5 -6 6 2 18 -12 28 -30 l18 -33 544 -1 c534 -2 544 -1 551 18 4 11 15 26 24 33 9 7 16 22 16 33 0 10 7 21 15 24 8 4 15 14 15 24 0 10 16 42 36 71 43 64 85 136 114 201 12 26 28 49 36 52 8 3 14 15 14 26 0 12 11 32 24 45 13 13 21 26 18 29 -3 3 0 6 6 6 7 0 12 7 12 15 0 8 5 15 12 15 6 0 8 3 5 6 -4 4 2 19 12 33 10 14 28 47 39 74 12 26 26 47 33 47 7 0 10 3 6 6 -8 8 22 67 39 77 8 4 14 17 14 27 0 11 10 28 21 39 l22 20 -22 41 c-11 22 -21 47 -21 55 0 8 -4 15 -10 15 -5 0 -17 14 -26 31 -8 17 -11 28 -5 25 19 -12 12 -1 -24 39 -20 21 -34 44 -31 50 2 6 -4 17 -15 23 -11 7 -16 18 -13 27 4 8 1 15 -5 15 -6 0 -11 7 -11 16 0 9 -13 33 -28 53 -27 35 -50 80 -48 92 0 4 -7 16 -17 27 -14 15 -16 28 -11 61 7 41 24 57 24 22z m-44 -221 c4 -16 7 -33 7 -37 0 -5 15 -24 34 -43 21 -23 31 -41 27 -53 -3 -10 -1 -16 5 -15 10 3 24 -19 81 -129 14 -26 31 -52 37 -56 18 -11 16 -36 -3 -44 -8 -3 -13 -11 -10 -18 3 -8 -2 -16 -10 -19 -8 -3 -14 -12 -14 -21 0 -13 -37 -76 -77 -130 -18 -25 -43 -74 -43 -86 0 -6 -11 -27 -25 -45 -14 -18 -25 -37 -25 -43 0 -6 -9 -20 -20 -31 -23 -23 -60 -89 -60 -107 0 -7 -12 -24 -27 -38 -15 -14 -24 -25 -18 -25 5 0 0 -7 -11 -16 -10 -8 -13 -12 -6 -9 11 6 12 3 3 -13 -6 -11 -17 -26 -23 -34 -7 -7 -24 -33 -37 -58 -14 -25 -29 -48 -34 -51 -5 -3 -9 -9 -8 -12 0 -4 -6 -22 -15 -42 -15 -36 -28 -44 -40 -24 -4 8 -9 8 -17 0 -15 -15 -80 -14 -95 1 -9 9 -15 9 -24 0 -16 -16 -51 -16 -46 0 3 7 21 13 41 14 55 4 243 135 251 175 2 8 8 27 14 42 7 16 12 37 12 48 0 10 4 19 8 19 5 0 5 25 0 55 -4 30 -7 58 -6 62 6 19 -84 134 -114 145 -11 4 -17 12 -14 17 3 5 -2 7 -13 4 -31 -8 -33 13 -3 43 15 15 21 24 15 20 -7 -4 1 19 18 51 39 72 49 84 60 77 5 -3 6 3 2 12 -4 12 -3 15 5 10 7 -4 10 -2 7 7 -3 7 7 30 23 50 16 20 35 50 42 67 7 16 16 30 21 30 5 0 6 7 3 15 -4 9 6 33 21 55 15 21 24 43 21 48 -3 5 1 15 9 22 8 7 15 19 15 26 0 7 9 31 21 53 11 22 18 45 14 51 -3 5 -1 10 5 10 6 0 13 -13 16 -30z m-1691 -198 c6 -4 24 -7 41 -8 17 -1 48 -12 70 -23 21 -12 48 -21 60 -21 12 0 27 -6 33 -14 6 -7 24 -16 39 -19 15 -3 42 -19 61 -36 19 -17 41 -31 48 -31 7 0 13 -4 13 -10 0 -5 16 -17 36 -25 24 -10 34 -20 31 -29 -4 -10 -1 -13 8 -9 9 3 33 -13 60 -41 24 -25 49 -46 55 -46 5 0 10 -7 10 -15 0 -8 7 -15 16 -15 10 0 14 -5 10 -16 -3 -8 -2 -12 4 -9 6 3 10 -1 10 -10 0 -9 5 -13 11 -10 12 8 59 -32 59 -50 0 -7 11 -20 24 -31 14 -10 23 -21 20 -26 -3 -4 1 -8 9 -8 19 0 50 -36 42 -50 -3 -6 -1 -9 6 -8 6 2 13 -2 15 -7 6 -15 -367 -10 -406 5 -3 1 -15 1 -28 0 -13 -1 -32 6 -43 16 -14 12 -22 14 -32 6 -14 -12 -92 1 -114 20 -7 5 -19 8 -27 5 -7 -3 -23 1 -35 9 -12 8 -25 13 -30 10 -5 -3 -25 6 -46 19 -20 14 -40 23 -44 21 -4 -3 -23 8 -42 24 -19 16 -40 29 -46 30 -7 0 -13 5 -13 10 0 6 -9 10 -20 10 -11 0 -20 7 -20 15 0 8 -7 15 -15 15 -8 0 -15 5 -15 10 0 6 -7 10 -15 10 -8 0 -15 6 -15 13 0 7 -9 20 -19 29 -23 19 -37 79 -26 105 5 10 7 28 6 40 -1 11 7 30 18 40 11 10 24 30 29 43 14 36 77 66 142 67 30 0 60 -2 65 -5z m1188 -99 c-3 -6 1 -22 8 -35 7 -13 14 -27 14 -33 1 -5 7 -23 13 -39 17 -38 9 -55 -28 -62 -16 -4 -35 -13 -41 -20 -6 -8 -17 -14 -24 -14 -6 0 -20 -9 -30 -20 -10 -11 -22 -17 -27 -14 -5 3 -19 -3 -31 -14 -12 -11 -42 -30 -67 -42 -25 -11 -54 -26 -65 -33 -11 -7 -36 -23 -55 -35 -40 -25 -50 -27 -50 -9 0 6 -25 34 -56 61 -32 28 -53 54 -50 62 3 9 -1 11 -12 7 -9 -3 -2 4 16 16 18 12 38 18 44 15 6 -4 8 -3 5 3 -7 12 34 43 56 43 8 0 20 7 27 15 7 8 21 15 31 15 11 0 19 4 19 10 0 9 56 43 75 45 18 2 70 29 98 52 16 13 34 23 42 23 7 0 19 7 26 16 22 26 53 34 60 15 3 -9 4 -21 2 -28z m190 -448 c4 -8 15 -15 22 -15 8 0 15 -8 15 -18 0 -10 5 -23 12 -30 29 -29 42 -122 17 -122 -5 0 -9 -9 -9 -20 0 -13 -7 -21 -20 -21 -11 -1 -25 -2 -32 -3 -8 -1 -13 18 -15 49 -2 37 -9 55 -25 68 -21 18 -32 18 -70 2 -15 -6 -18 -1 -18 33 0 23 6 45 15 52 8 7 15 18 15 25 0 8 6 16 13 19 20 9 71 -3 80 -19z m-1076 -2 c-4 -3 -10 -3 -14 0 -3 4 0 7 7 7 7 0 10 -3 7 -7z m-5 -79 c80 -8 103 -11 108 -14 9 -5 104 -8 271 -9 175 -1 190 -4 195 -49 10 -86 15 -113 31 -147 32 -70 142 -159 174 -140 12 8 49 -4 49 -16 0 -13 -54 -11 -68 3 -9 9 -15 9 -24 0 -9 -9 -92 -12 -310 -12 -261 0 -298 2 -298 15 0 9 -6 18 -14 21 -8 3 -12 12 -9 20 3 8 0 14 -6 14 -6 0 -11 7 -11 15 0 9 -7 18 -15 21 -8 4 -15 14 -15 24 0 10 -7 25 -15 34 -8 8 -15 19 -15 24 0 5 -9 17 -20 27 -12 10 -18 25 -16 32 3 7 1 13 -3 13 -12 0 -71 121 -65 132 3 5 10 6 15 3 5 -4 33 -9 61 -11z m588 -28 c0 -3 -4 -8 -10 -11 -5 -3 -10 -1 -10 4 0 6 5 11 10 11 6 0 10 -2 10 -4z m210 -31 c17 -9 30 -23 30 -31 0 -9 9 -18 20 -21 22 -6 50 -88 43 -127 -7 -36 -40 -63 -61 -49 -9 5 -17 19 -18 29 -4 63 -57 102 -94 69 -18 -16 -38 -5 -25 14 3 5 1 12 -5 16 -27 17 -2 95 30 95 10 0 22 5 25 10 9 14 21 13 55 -5z m15 -225 c3 -5 -1 -10 -10 -10 -9 0 -13 5 -10 10 3 6 8 10 10 10 2 0 7 -4 10 -10z"/>
 <path d="M1025 2078 c-25 -16 -48 -28 -53 -28 -4 0 -13 -13 -20 -30 -8 -16 -20 -30 -28 -30 -9 0 -14 -11 -14 -30 0 -17 -7 -47 -15 -66 -8 -20 -13 -40 -10 -44 3 -5 1 -11 -4 -14 -12 -8 -2 -46 13 -46 6 0 17 9 24 20 7 12 17 18 22 15 6 -4 23 3 39 14 16 12 34 21 40 21 6 0 11 4 11 9 0 8 37 24 51 22 4 0 15 9 24 19 10 11 23 20 28 20 6 0 18 6 26 14 9 8 51 32 93 54 l76 41 -25 17 c-31 20 -131 45 -191 48 -32 1 -55 -6 -87 -26z"/>
 <path d="M1491 1912 c-7 -2 -22 -13 -33 -24 -10 -10 -32 -21 -48 -25 -16 -3 -35 -12 -41 -19 -6 -8 -17 -14 -25 -14 -7 0 -19 -6 -26 -12 -7 -7 -26 -20 -43 -28 -16 -8 -43 -25 -58 -37 -16 -13 -37 -23 -48 -23 -10 0 -27 -8 -37 -18 -21 -21 -109 -72 -126 -73 -6 0 -31 -15 -56 -33 -30 -22 -44 -40 -42 -52 9 -67 13 -85 27 -118 18 -42 24 -44 62 -13 38 31 98 67 112 67 6 0 41 19 78 43 36 23 71 41 76 39 6 -2 13 1 16 5 3 5 33 21 65 38 33 16 71 39 84 52 14 13 31 23 38 23 7 0 30 11 50 25 20 14 44 25 53 25 9 0 22 9 28 19 11 17 7 27 -31 73 -23 29 -47 60 -52 69 -5 9 -15 14 -23 11z"/>
 </g>
<g id="layer105" fill="#dba23c" stroke="none">
 <path d="M0 1275 l0 -1275 1465 0 1465 0 0 1275 0 1275 -1465 0 -1465 0 0 -1275z m1780 999 c0 -7 -10 -22 -22 -34 -21 -19 -33 -20 -429 -20 l-407 0 -23 -37 c-13 -21 -29 -49 -36 -63 -7 -14 -22 -38 -32 -55 -11 -16 -35 -59 -53 -95 -18 -36 -59 -108 -89 -160 -31 -52 -82 -139 -113 -192 -57 -98 -57 -98 -96 -98 -22 0 -40 3 -40 6 0 4 20 36 44 73 24 36 51 84 60 105 9 22 27 54 39 70 13 17 29 45 36 63 7 17 21 39 32 49 10 9 19 23 19 30 0 7 24 52 53 100 28 47 59 98 67 112 8 15 26 45 40 67 14 22 30 52 37 67 l12 27 450 -1 c364 -1 451 -4 451 -14z m275 6 c3 -5 14 -10 24 -10 27 0 66 -35 92 -82 22 -40 24 -54 24 -193 -1 -141 -14 -243 -36 -271 -5 -6 -13 -34 -20 -62 -12 -56 -160 -359 -223 -456 -21 -32 -42 -54 -46 -50 -11 11 -77 238 -89 307 -5 29 -16 88 -24 132 -27 144 -30 232 -13 352 9 61 23 124 31 140 8 15 15 35 15 44 0 24 29 76 45 83 8 3 15 12 15 21 0 25 69 53 137 54 34 1 65 -3 68 -9z m-345 -146 c0 -3 -9 -52 -21 -107 -18 -88 -20 -125 -16 -270 l5 -168 -40 -29 c-22 -16 -86 -53 -142 -81 -55 -28 -123 -64 -151 -80 -27 -15 -63 -35 -80 -44 -16 -9 -48 -27 -70 -40 -67 -40 -114 -65 -123 -65 -5 0 -22 13 -38 30 -16 16 -32 30 -36 30 -4 0 -36 20 -72 45 -55 39 -101 63 -241 125 -11 5 -29 10 -40 12 -48 8 -41 23 202 427 12 20 29 51 37 70 9 18 32 60 52 92 l35 59 370 0 c203 0 369 -3 369 -6z m603 -316 c18 -31 61 -107 97 -170 36 -62 71 -124 78 -138 18 -35 36 -66 49 -81 6 -8 27 -44 46 -81 l36 -67 -83 -143 c-45 -79 -104 -180 -132 -226 -27 -46 -55 -95 -63 -110 -7 -15 -21 -36 -31 -47 -9 -11 -27 -42 -39 -69 -12 -26 -34 -67 -49 -90 -36 -56 -48 -76 -66 -111 -9 -16 -27 -48 -40 -70 -13 -22 -33 -58 -44 -81 -15 -31 -27 -43 -49 -47 -16 -3 -280 -6 -586 -7 -423 0 -557 2 -557 11 0 7 -11 26 -24 43 -33 43 -154 250 -177 301 -10 23 -26 48 -34 55 -8 7 -15 20 -15 29 0 9 -5 22 -11 28 -6 6 -16 20 -23 31 -6 11 -24 41 -40 66 -16 26 -26 49 -23 52 2 3 23 -1 46 -8 39 -12 46 -21 105 -123 34 -60 69 -123 77 -140 8 -16 29 -52 48 -80 18 -27 42 -68 53 -90 29 -61 45 -87 60 -96 7 -5 252 -9 544 -9 l532 0 52 93 c29 50 63 106 76 124 13 17 28 42 34 55 14 32 70 133 122 219 24 40 57 97 74 128 17 31 63 112 102 180 40 68 72 130 72 137 0 7 -18 43 -40 82 -22 38 -40 72 -40 76 0 4 -11 22 -25 40 -13 17 -41 63 -62 102 -21 39 -55 99 -76 134 -35 58 -38 68 -32 112 4 27 11 48 17 46 5 -2 24 -29 41 -60z m-65 -190 c12 -24 22 -48 22 -54 0 -6 7 -18 17 -25 9 -8 25 -32 35 -54 10 -22 28 -53 38 -70 11 -16 29 -48 40 -70 11 -22 25 -47 31 -56 10 -13 2 -33 -42 -108 -30 -51 -62 -104 -71 -119 -10 -15 -22 -37 -28 -50 -19 -43 -104 -187 -127 -215 -13 -16 -23 -33 -23 -39 0 -10 -44 -88 -82 -147 -10 -14 -22 -36 -28 -49 -5 -13 -21 -38 -34 -55 -14 -18 -29 -44 -35 -60 l-11 -27 -106 0 c-79 0 -105 3 -102 12 3 7 18 13 34 14 34 2 112 43 171 91 58 46 108 135 117 204 13 104 -48 221 -135 261 -21 9 -39 21 -39 27 0 5 11 23 25 39 14 17 25 33 25 36 0 4 27 52 61 107 67 110 180 339 199 407 7 23 16 42 19 42 3 0 16 -19 29 -42z m-1654 -193 c144 -38 320 -135 438 -244 137 -127 218 -205 218 -211 0 -4 20 -28 45 -53 47 -50 53 -62 33 -70 -13 -5 -299 8 -398 17 -134 14 -320 63 -363 96 -14 11 -29 19 -34 18 -11 -3 -90 39 -98 52 -3 5 -21 17 -40 26 -19 9 -35 23 -35 30 0 8 -7 14 -15 14 -8 0 -15 7 -15 15 0 9 -7 18 -15 21 -22 9 -39 76 -31 128 7 46 59 134 86 146 8 4 24 12 35 18 29 16 122 14 189 -3z m1181 -216 c6 -27 3 -31 -32 -47 -21 -10 -57 -30 -80 -45 -24 -15 -49 -27 -57 -27 -8 0 -18 -5 -22 -11 -3 -6 -25 -20 -48 -31 -22 -11 -59 -30 -81 -43 -83 -50 -97 -56 -104 -48 -4 4 -36 38 -70 75 -56 59 -61 68 -45 75 11 4 38 20 60 35 23 15 49 28 57 28 8 0 20 7 27 15 7 8 16 15 21 15 4 0 28 14 52 30 25 17 51 30 59 30 8 0 38 16 68 35 30 19 60 35 66 35 6 0 18 7 25 16 7 9 22 20 34 24 18 7 22 0 42 -62 12 -39 25 -83 28 -99z m148 -324 c4 -8 14 -15 22 -15 7 0 19 -15 26 -32 40 -105 39 -99 21 -140 -29 -66 -89 -63 -84 5 4 39 -31 82 -57 72 -39 -17 -46 -11 -49 37 -3 40 1 52 23 74 21 21 32 25 58 20 17 -4 35 -13 40 -21z m-968 -90 c33 -3 76 -8 95 -11 19 -3 112 -5 205 -5 l171 2 0 -78 c0 -139 61 -215 202 -252 95 -26 39 -31 -310 -29 l-352 3 -48 83 c-26 46 -48 90 -48 97 0 7 -7 19 -17 26 -9 8 -25 32 -35 54 -11 22 -28 55 -40 73 -31 50 -21 60 54 50 34 -5 90 -11 123 -13z m683 -49 c42 -22 71 -58 86 -109 17 -57 9 -94 -26 -120 -33 -25 -73 -16 -58 14 29 54 -37 123 -80 84 -17 -16 -19 -15 -29 4 -13 23 -14 81 -2 99 10 16 50 40 69 41 7 1 25 -5 40 -13z"/>
 <path d="M1019 2074 c-20 -12 -47 -36 -62 -53 -33 -40 -67 -131 -67 -183 l0 -40 25 16 c13 9 31 16 39 16 8 0 28 11 44 25 17 14 34 25 39 25 11 0 52 21 98 50 17 10 63 38 103 60 39 23 72 45 72 49 0 17 -31 33 -91 47 -87 20 -156 16 -200 -12z"/>
 <path d="M1430 1872 c-31 -15 -69 -37 -87 -50 -17 -12 -36 -22 -42 -22 -14 0 -49 -19 -76 -41 -26 -22 -204 -119 -219 -120 -6 0 -31 -15 -56 -33 -30 -23 -44 -39 -42 -52 2 -11 3 -27 3 -36 0 -10 4 -20 10 -23 5 -4 9 -15 9 -26 0 -32 21 -57 43 -51 11 3 43 20 71 39 28 18 57 33 64 33 7 0 43 19 80 43 37 24 128 76 202 117 182 98 220 120 220 125 0 12 -103 125 -113 124 -7 0 -37 -13 -67 -27z"/>
 </g>
<g id="layer106" fill="#fff5d3" stroke="none">
 <path d="M0 1275 l0 -1275 1465 0 1465 0 0 1275 0 1275 -1465 0 -1465 0 0 -1275z m1773 983 l-19 -33 -416 -3 -416 -2 -121 -213 c-67 -116 -157 -273 -200 -347 l-78 -135 -42 -3 c-24 -2 -41 0 -40 5 10 22 359 629 421 731 l20 32 455 0 455 0 -19 -32z m305 17 c87 -37 113 -88 119 -240 9 -202 -30 -351 -161 -608 -93 -184 -154 -283 -166 -271 -13 13 -76 239 -99 351 -45 228 -48 338 -14 518 15 82 61 191 91 218 53 48 156 62 230 32z m-368 -141 c0 -3 -9 -52 -21 -107 -18 -86 -20 -126 -16 -257 2 -85 7 -162 11 -170 4 -11 -64 -54 -287 -177 -160 -89 -299 -165 -308 -168 -11 -4 -47 16 -105 59 -104 77 -189 124 -296 161 -43 15 -78 31 -78 35 0 7 188 335 321 563 l40 67 369 0 c204 0 370 -3 370 -6z m630 -361 c65 -113 187 -323 236 -408 16 -27 32 -58 36 -67 7 -16 -6 -41 -207 -388 -43 -74 -139 -241 -213 -370 -74 -129 -139 -241 -144 -248 -8 -9 -134 -12 -590 -10 l-580 3 -70 120 c-192 329 -280 487 -275 491 3 3 24 -1 47 -9 41 -14 46 -21 154 -208 62 -107 130 -223 152 -259 l39 -65 536 -3 536 -2 198 342 c317 549 335 581 335 594 0 6 -63 121 -141 255 -140 241 -140 242 -134 291 4 26 10 48 15 48 4 0 35 -48 70 -107z m-13 -281 c56 -97 105 -185 108 -194 4 -11 -23 -68 -78 -165 -233 -406 -390 -679 -399 -690 -7 -8 -137 -11 -501 -10 l-491 2 -112 195 c-62 107 -110 198 -108 202 2 3 19 2 37 -2 73 -20 313 -40 475 -40 l172 0 -6 -52 c-22 -189 161 -326 365 -274 69 18 156 70 197 119 34 41 70 120 79 174 15 93 -48 208 -137 254 -21 11 -38 23 -38 27 0 4 11 23 23 42 103 152 257 446 287 548 7 23 16 42 19 42 3 -1 52 -81 108 -178z m-1667 -77 c174 -63 315 -161 505 -350 143 -142 184 -193 166 -204 -18 -12 -264 -2 -402 15 -63 7 -159 25 -212 38 -161 41 -344 144 -402 225 -26 37 -30 52 -30 105 0 53 5 71 30 112 17 27 46 59 65 72 32 22 43 24 120 19 57 -3 110 -14 160 -32z m1113 -198 c2 -30 -7 -36 -341 -218 l-73 -40 -69 73 c-51 54 -65 76 -57 84 14 12 298 171 467 261 25 13 25 13 48 -60 12 -39 23 -85 25 -100z m129 -306 c65 -25 116 -127 97 -195 -11 -39 -33 -56 -73 -56 -24 0 -25 2 -20 43 5 34 2 46 -16 65 -14 15 -28 21 -39 17 -39 -17 -46 -11 -49 37 -3 40 1 52 22 73 27 27 42 30 78 16z m-252 -163 c62 -43 97 -117 81 -175 -9 -35 -52 -67 -79 -59 -18 6 -19 11 -11 29 14 30 -2 69 -35 86 -23 13 -28 12 -45 -3 -19 -17 -20 -17 -30 3 -20 36 -13 90 14 116 30 31 62 32 105 3z"/>
 <path d="M1043 2084 c-23 -8 -57 -32 -76 -53 -42 -47 -79 -141 -75 -191 l3 -37 205 113 c112 62 206 117 208 122 5 16 -101 55 -163 58 -38 2 -76 -2 -102 -12z"/>
 <path d="M1215 1750 c-332 -184 -305 -167 -305 -187 0 -10 10 -48 21 -84 16 -50 25 -66 36 -62 8 3 123 66 256 140 133 75 267 148 297 163 101 52 100 47 41 118 -29 34 -57 62 -64 62 -7 0 -133 -68 -282 -150z"/>
 </g>
<g id="layer107" fill="#fdfdfc" stroke="none">
 <path d="M0 1275 l0 -1275 1465 0 1465 0 0 1275 0 1275 -1465 0 -1465 0 0 -1275z m928 1023 c9 -9 15 -9 24 0 17 17 719 17 736 0 9 -9 15 -9 24 0 13 13 51 16 62 5 4 -5 13 -8 19 -8 22 0 16 -23 -18 -60 -26 -30 -37 -37 -46 -28 -9 9 -16 9 -30 0 -14 -9 -21 -9 -31 1 -15 15 -433 17 -443 2 -3 -5 -17 -10 -30 -10 -13 0 -27 5 -30 10 -3 6 -26 10 -50 10 -24 0 -47 -4 -50 -10 -8 -13 -58 -13 -72 1 -21 21 -57 6 -75 -31 -9 -19 -22 -41 -29 -49 -7 -7 -23 -35 -36 -61 -13 -26 -34 -59 -47 -73 -13 -14 -22 -28 -19 -30 5 -5 -23 -60 -50 -97 -19 -26 -84 -138 -144 -250 -20 -36 -44 -75 -55 -86 -20 -22 -79 -36 -99 -23 -15 9 -5 50 21 79 11 13 20 26 20 31 0 4 31 58 68 121 37 62 80 138 95 168 23 45 86 152 137 230 5 8 19 33 30 55 49 94 66 115 89 115 9 0 22 -5 29 -12z m1056 4 c2 -4 30 -9 61 -10 94 -4 144 -64 166 -200 10 -67 10 -102 1 -182 -14 -105 -49 -248 -76 -301 -9 -17 -16 -38 -16 -46 0 -7 -4 -13 -10 -13 -5 0 -10 -8 -10 -18 0 -10 -20 -56 -45 -101 -24 -46 -47 -93 -51 -105 -4 -11 -10 -23 -13 -26 -3 -3 -24 -34 -45 -70 -22 -36 -46 -73 -54 -83 -14 -16 -16 -16 -34 -1 -10 10 -18 27 -18 39 0 13 -8 40 -17 61 -9 22 -18 48 -19 59 -5 42 -24 116 -34 136 -6 11 -10 35 -9 52 2 18 0 38 -5 45 -4 7 -5 19 -2 27 3 8 1 17 -5 21 -6 3 -9 16 -7 27 1 12 -1 28 -6 36 -15 23 -20 229 -7 245 7 8 9 25 6 39 -8 31 21 170 46 217 10 19 23 47 29 62 14 33 66 73 111 86 44 13 57 14 63 4z m-269 -198 c-2 -24 -9 -63 -16 -86 -13 -50 -27 -306 -17 -316 4 -4 9 -34 10 -67 l3 -59 -75 -42 c-41 -24 -79 -46 -85 -51 -5 -4 -30 -18 -55 -30 -78 -39 -301 -163 -310 -173 -13 -14 -80 -43 -86 -37 -4 3 -16 2 -27 -4 -12 -7 -17 -7 -13 -1 6 11 -9 24 -111 97 -77 55 -161 98 -253 129 -87 29 -99 39 -79 63 8 10 26 41 39 68 13 28 34 64 47 81 13 17 23 34 23 37 0 3 11 23 25 43 14 20 25 45 25 54 0 10 6 20 13 23 6 3 26 31 42 64 17 32 32 60 35 63 3 3 16 25 30 50 31 57 65 111 84 130 12 13 66 15 385 12 l371 -2 -5 -46z m575 -213 c0 -6 13 -29 29 -53 25 -37 45 -74 118 -212 9 -15 33 -56 54 -90 21 -33 50 -83 65 -111 15 -27 29 -52 33 -55 7 -6 26 -46 35 -73 6 -18 -68 -169 -85 -175 -5 -2 -9 -9 -9 -16 0 -6 -20 -43 -45 -81 -25 -39 -45 -74 -45 -79 0 -5 -6 -17 -14 -25 -8 -9 -29 -45 -48 -81 -19 -36 -45 -83 -59 -105 -13 -22 -30 -51 -37 -65 -7 -14 -28 -50 -47 -80 -19 -30 -42 -71 -51 -90 -9 -19 -31 -58 -49 -85 -18 -28 -43 -71 -55 -96 l-22 -46 -537 -2 c-295 -1 -556 -2 -581 -3 -56 -1 -90 9 -90 28 0 15 -28 64 -43 75 -4 3 -9 16 -12 29 -2 12 -11 30 -19 39 -7 9 -23 34 -35 56 -28 52 -42 74 -64 99 -10 11 -21 32 -24 46 -4 13 -35 71 -70 128 -35 57 -66 115 -69 129 -6 24 -5 25 17 19 13 -4 31 -9 39 -10 25 -3 78 -39 84 -55 2 -9 13 -29 23 -46 97 -162 133 -225 133 -233 0 -5 9 -17 20 -27 11 -10 20 -26 20 -35 0 -10 8 -28 18 -41 10 -13 26 -41 37 -62 l20 -37 528 0 528 0 24 26 c13 15 34 48 46 75 13 27 26 49 31 49 4 0 8 4 8 9 0 4 23 48 52 97 28 49 64 112 79 139 14 28 43 77 63 109 20 33 36 64 36 70 0 5 8 19 19 30 10 12 32 46 48 76 17 30 40 71 51 90 59 96 75 137 68 173 -4 19 -18 46 -31 59 -14 13 -25 27 -25 32 0 5 -14 32 -32 59 -18 28 -33 56 -34 64 -1 7 -12 24 -23 39 -12 15 -21 30 -21 35 0 4 -22 44 -50 88 -49 78 -63 132 -40 146 6 4 8 15 5 26 -4 10 -3 23 0 29 8 13 35 13 35 1z m-2 -307 c30 -49 61 -102 69 -119 8 -16 20 -39 26 -50 7 -11 24 -41 40 -67 29 -51 34 -89 14 -110 -7 -7 -27 -38 -44 -68 -86 -154 -113 -201 -152 -265 -23 -38 -43 -74 -44 -79 -1 -6 -5 -15 -10 -21 -24 -33 -57 -87 -57 -94 0 -5 -22 -43 -50 -84 -57 -88 -85 -139 -82 -149 1 -5 -3 -8 -9 -8 -6 0 -9 -6 -6 -14 5 -14 -9 -24 -43 -33 -8 -2 -231 -3 -495 -3 -435 0 -481 2 -490 17 -5 9 -18 25 -27 35 -10 10 -16 18 -13 18 8 0 -23 57 -65 121 -20 30 -52 84 -71 120 -19 35 -40 68 -47 72 -9 6 -9 13 -1 29 9 16 17 19 42 13 18 -3 68 -12 112 -19 44 -8 82 -15 85 -16 3 -1 36 -1 73 0 38 1 74 -3 80 -7 7 -5 74 -6 149 -3 94 3 143 1 153 -6 11 -9 15 -29 14 -80 -2 -75 11 -112 59 -166 29 -32 119 -78 155 -78 13 0 28 -5 35 -12 9 -9 17 -9 34 0 13 6 46 16 75 23 29 7 50 15 48 19 -2 3 5 7 16 7 39 3 158 119 159 154 0 8 7 23 15 33 31 41 9 226 -27 226 -4 0 -8 6 -8 13 0 14 -75 69 -105 77 -31 9 -29 32 10 82 19 26 35 54 35 62 0 9 4 16 9 16 9 0 91 136 91 151 0 5 4 9 8 9 5 0 23 33 41 73 18 39 38 83 46 97 7 14 18 43 25 65 20 60 51 116 63 112 6 -2 36 -44 65 -93z m-1803 -124 c5 -8 11 -8 19 -1 14 12 120 -11 168 -35 15 -8 39 -14 53 -14 14 0 24 -4 20 -9 -3 -5 12 -15 32 -22 21 -7 59 -27 85 -46 26 -18 52 -33 57 -33 5 0 11 -3 13 -7 3 -9 84 -73 91 -73 2 0 28 -24 58 -52 30 -29 63 -60 74 -69 11 -9 31 -30 45 -47 13 -17 26 -29 28 -27 5 5 52 -62 52 -73 0 -4 10 -12 22 -17 26 -11 70 -73 62 -86 -7 -12 -231 -12 -239 0 -3 5 -30 7 -59 4 -30 -3 -63 -2 -73 1 -10 4 -47 9 -83 12 -208 13 -535 154 -601 258 -47 74 -53 100 -38 153 16 58 51 122 81 150 39 35 119 55 133 33z m1253 -69 c7 -4 16 -28 18 -52 3 -24 10 -45 15 -47 5 -2 9 -16 9 -31 0 -15 5 -32 11 -38 16 -16 -15 -63 -41 -63 -11 0 -20 -4 -20 -8 0 -4 -15 -15 -32 -24 -64 -31 -151 -78 -162 -87 -6 -5 -39 -23 -73 -40 -34 -18 -65 -36 -68 -41 -15 -24 -50 -7 -101 48 -29 31 -54 61 -54 66 0 5 -8 15 -17 22 -17 13 -16 15 7 33 14 11 66 41 115 67 50 25 95 50 101 55 12 9 54 33 189 105 90 48 85 47 103 35z m191 -479 c39 -19 89 -100 90 -144 1 -29 -26 -107 -38 -109 -44 -6 -92 -5 -97 3 -4 5 -1 21 7 34 10 20 10 29 -1 49 -15 28 -47 33 -56 10 -10 -25 -24 -17 -40 21 -20 47 -10 103 24 131 32 27 64 28 111 5z m-265 -153 c98 -77 112 -238 23 -254 -20 -4 -44 -2 -56 4 -20 11 -20 13 -6 35 13 19 13 29 4 49 -15 33 -46 41 -62 16 -20 -31 -35 -22 -51 31 -17 57 -9 91 28 122 29 24 87 23 120 -3z"/>
 <path d="M1092 2083 c-35 -8 -66 -21 -69 -29 -3 -8 -10 -14 -16 -14 -21 0 -74 -69 -86 -113 -7 -23 -16 -54 -21 -69 -9 -32 2 -45 22 -25 7 7 28 19 46 26 19 8 39 19 45 26 7 6 50 30 97 53 108 53 163 85 167 98 4 12 -39 34 -65 34 -10 0 -26 6 -37 13 -17 12 -30 12 -83 0z"/>
 <path d="M1461 1874 c-13 -9 -49 -30 -80 -47 -31 -16 -61 -33 -66 -37 -6 -5 -48 -29 -95 -53 -136 -72 -170 -93 -163 -100 3 -4 -5 -7 -19 -7 -34 0 -120 -66 -114 -88 25 -97 32 -112 47 -112 9 0 22 7 29 15 7 8 39 27 71 41 33 15 59 31 59 35 0 5 6 9 13 10 6 0 41 17 77 38 36 22 102 58 148 81 45 23 82 46 82 51 0 5 9 9 19 9 11 0 26 6 33 13 8 6 27 20 43 29 17 9 31 23 33 30 3 14 -73 108 -87 108 -3 0 -17 -7 -30 -16z"/>
 </g>

</svg>